<?xml version="1.0" encoding="UTF-8" standalone="no"?>
<!DOCTYPE svg PUBLIC "-//W3C//DTD SVG 1.1//EN"
"http://www.w3.org/Graphics/SVG/1.1/DTD/svg11.dtd">
<svg width="300" height="71.2" xmlns="http://www.w3.org/2000/svg" xmlns:xlink="http://www.w3.org/1999/xlink" version="1.1">
 <desc>Logo of University of Brighton</desc>
 <g fill="#231f20">
   <path d="m32.7774,7.04431l-11.62861,1.40825l-4.75615,-8.45256l-4.65998,8.50619l-11.5939,-1.58642l7.03331,9.3656l-7.17208,9.2474l11.62861,-1.40825l4.75615,8.45417l4.65998,-8.5078l11.59549,1.58804l-7.03489,-9.36569l7.17208,-9.24894l-0.00002,-0.00002l0.00001,0l0,0.00002l0,0.00001zm-16.01101,9.44606l14.35994,8.22396l-10.37491,-1.38303l-3.98502,-6.84093l-0.00001,0.00001l0,-0.00001zm-8.83579,-0.23812l7.91641,0l-14.30158,8.31223l6.38517,-8.31223zm8.10407,-0.23966l-14.35993,-8.22233l10.37491,1.38139l3.98502,6.84093l0,0.00001zm0.36586,0.5598l0,14.77307l-4.22472,-7.84698l4.22472,-6.92613l0,0.00002l0,0.00001l0,0.00001zm4.23733,-7.49217l-4.23733,6.92602l0,-14.77153l4.23733,7.84551zm10.61777,-1.14019l-6.38519,8.31222l-7.91641,0l14.30161,-8.31222l-0.00001,0z"/>
   <path d="m23.65129,59.76355c0,4.80975 -2.60043,7.11689 -7.89747,7.11689c-5.29706,0 -7.92274,-2.30714 -7.92274,-7.11689l0,-10.63986l5.34752,0l0,9.44925c0,1.77256 0,3.98342 2.59886,3.98342c2.52789,0 2.52789,-2.21086 2.52789,-3.98342l0,-9.44925l5.34594,0l0,10.63986l-0.00001,0l0.00001,0z"/>
   <path d="m27.24017,53.85991l4.64104,0l0,1.60383l0.0489,0c0.89886,-1.2632 2.18723,-1.91925 4.10643,-1.91925c2.25978,0 4.32565,1.38457 4.32565,4.27518l0,8.64814l-4.81135,0l0,-6.60752c0,-1.45712 -0.1703,-2.4774 -1.58011,-2.4774c-0.82634,0 -1.91919,0.41311 -1.91919,2.4285l0,6.65642l-4.81135,0l0,-12.60788l-0.00001,-0.00002l-0.00001,0z"/>
   <path d="m44.05198,53.86227l4.81133,0l0,12.60791l-4.81133,0l0,-12.60791zm4.81133,-1.35781l-4.81133,0l0,-3.37629l4.81133,0l0,3.37629z"/>
   <path d="m60.84123,66.4678l-5.68659,0l-4.13007,-12.60788l5.07787,0l1.96805,7.67668l0.04889,0l1.99328,-7.67668l4.90756,0l-4.17898,12.60788l-0.00001,0z"/>
   <path d="m75.7329,58.7431c0,-1.16695 -0.87522,-2.11319 -2.11472,-2.11319c-1.43347,0 -2.25979,0.7523 -2.47742,2.11319l4.59215,0l-0.00001,0zm-4.61739,2.50108c0.12144,1.43346 0.94778,2.45382 2.45535,2.45382c0.77745,0 1.62746,-0.29181 2.01537,-0.89889l4.49596,0c-0.9714,2.72178 -3.62074,3.98497 -6.48769,3.98497c-4.03388,0 -7.07114,-2.38124 -7.07114,-6.58384c0,-3.66803 2.67298,-6.65488 6.658,-6.65488c5.00529,0 7.16891,2.79284 7.16891,7.69882l-9.23476,0l-0.00002,0l0.00001,0z"/>
   <path d="m83.33298,53.85991l4.61739,0l0,2.01693l0.04887,0c0.77747,-1.50604 1.79778,-2.33235 3.54819,-2.33235c0.48574,0 0.94778,0.07257 1.40982,0.19395l0,4.25159c-0.4873,-0.17036 -0.9241,-0.31541 -1.89552,-0.31541c-1.89552,0 -2.9174,1.11651 -2.9174,3.81308l0,4.98011l-4.81136,0l0,-12.60788l0,-0.00002z"/>
   <path d="m102.37952,57.52802c-0.02364,-0.4132 -0.24286,-0.72852 -0.55825,-0.9478c-0.29176,-0.24284 -0.68126,-0.36421 -1.06918,-0.36421c-0.68124,0 -1.4587,0.14505 -1.4587,0.9729c0,0.36431 0.29176,0.53468 0.55984,0.65451c0.80109,0.34063 2.62408,0.43842 4.22786,0.97302c1.60378,0.50936 3.01361,1.45712 3.01361,3.52132c0,3.49776 -3.35426,4.44556 -6.41673,4.44556c-2.96471,0 -6.22116,-1.19065 -6.29371,-4.44556l4.59373,0c0.02367,0.43843 0.21762,0.8011 0.58192,1.11805c0.24286,0.21928 0.70649,0.36431 1.28837,0.36431c0.63237,0 1.62903,-0.24284 1.62903,-0.97136c0,-0.72862 -0.41315,-0.94778 -2.64931,-1.33731c-3.66962,-0.63083 -5.15196,-1.79613 -5.15196,-3.95822c0,-3.18234 3.42676,-4.00866 5.95306,-4.00866c2.72346,0 6.00356,0.75384 6.12341,3.98344l-4.37297,0l0,0l0,0.00002l-0.00002,-0.00001z"/>
   <path d="m110.10354,53.86227l4.81135,0l0,12.60791l-4.81135,0l0,-12.60791zm4.81293,-1.35781l-4.81136,0l0,-3.37629l4.81136,0l0,3.37629z"/>
   <path d="m124.41442,53.85991l2.5752,0l0,2.96472l-2.5752,0l0,4.39664c0,1.16531 0.26807,1.6763 1.48236,1.6763c0.36427,0 0.72856,-0.02522 1.09283,-0.07257l0,3.64281c-0.97143,0 -2.06428,0.14505 -3.08613,0.14505c-2.04064,0 -4.30044,-0.31532 -4.30044,-3.76418l0,-6.02405l-2.13838,0l0,-2.96472l2.13838,0l0,-3.83839l4.81136,0l0,3.83839l0.00002,0z"/>
   <path d="m140.30528,65.49538c-0.38948,1.11804 -0.82632,2.54997 -1.58012,3.49931c-1.26312,1.57851 -3.20757,1.55329 -5.07945,1.55329l-2.18565,0l0,-3.83829l1.11647,0c0.4873,0 1.1181,0.0489 1.45869,-0.11993c0.29176,-0.14658 0.46208,-0.38943 0.46208,-0.94769c0,-0.60879 -1.84669,-5.24817 -2.11473,-5.97516l-2.13838,-5.80643l5.15196,0l2.01695,7.23826l0.04893,0l2.04056,-7.23826l4.98166,0l-4.17897,11.63491l-0.00002,0l0.00002,0z"/>
   <path d="m159.88464,66.78361c-4.73721,0 -6.87558,-3.13345 -6.87558,-6.63121c0,-3.49766 2.13837,-6.60751 6.87558,-6.60751c4.73885,0 6.8772,3.10986 6.8772,6.60751c0,3.49776 -2.13835,6.63121 -6.8772,6.63121m0,-9.74097c-1.82298,0 -2.06583,1.77409 -2.06583,3.10977c0,1.33577 0.24283,3.13344 2.06583,3.13344c1.823,0 2.06584,-1.79767 2.06584,-3.13344c0,-1.33567 -0.24284,-3.10977 -2.06584,-3.10977"/>
   <path d="m170.62038,56.82376l-1.96806,0l0,-2.96472l1.96806,0c-0.04889,-1.2379 0.07413,-2.62255 0.99667,-3.54501c1.04549,-1.04394 2.25978,-1.19062 4.20419,-1.19062c0.72856,0 1.43347,0.07257 2.16203,0.09777l0,3.3037c-0.38794,-0.0489 -0.77745,-0.1719 -1.16539,-0.1719c-1.16693,0 -1.55647,0.34227 -1.48233,1.50603l2.52629,0l0,2.96474l-2.4301,0l0,9.6448l-4.81133,0l0,-9.6448l-0.00005,0.00002l-0.00002,0l0.00002,-0.00001z"/>
   <path d="m192.80194,62.33768l3.13509,0c1.11806,0 2.08946,-0.31542 2.08946,-1.65109c0,-1.02028 -0.60716,-1.57851 -1.87189,-1.57851l-3.35266,0l0,3.2296zm-5.34595,-13.21351l9.50128,0c4.5685,0 5.54149,2.57527 5.54149,4.34773c0,1.74888 -0.85158,2.69502 -2.13994,3.39996c1.55486,0.5346 3.01361,1.7741 3.01361,4.32409c0,3.47408 -3.01361,5.27185 -6.07455,5.27185l-9.84189,0l0,-17.34364l0,0.00001zm5.34595,6.75266l2.81961,0c1.1181,0 1.82144,-0.31544 1.82144,-1.43348c0,-0.87521 -0.72856,-1.19062 -1.82144,-1.19062l-2.81961,0l0,2.62409l0,0.00002l0,-0.00001z"/>
   <path d="m206.35794,53.85991l4.61737,0l0,2.01693l0.04889,0c0.77747,-1.50604 1.79774,-2.33235 3.5482,-2.33235c0.48572,0 0.94775,0.07257 1.40981,0.19395l0,4.25159c-0.48727,-0.17036 -0.92409,-0.31541 -1.89551,-0.31541c-1.89552,0 -2.9174,1.11651 -2.9174,3.81308l0,4.98011l-4.81136,0l0,-12.60788l0,-0.00002z"/>
   <path d="m218.21143,53.86227l4.81137,0l0,12.60791l-4.81137,0l0,-12.60791zm4.81137,-1.35781l-4.81137,0l0,-3.37629l4.81137,0l0,3.37629z"/>
   <path d="m232.93517,62.63009c1.77411,0 1.96806,-1.69999 1.96806,-3.10977c0,-1.38457 -0.68126,-2.4775 -2.08951,-2.4775c-1.36095,0 -2.04219,1.1654 -2.04219,2.50116c0,1.43348 0.43683,3.08607 2.1636,3.08607m6.65799,2.20934c0,2.50262 -0.65604,6.02405 -6.56177,6.02405c-2.9884,0 -6.14706,-0.80107 -6.58389,-4.20104l4.76088,0c0.04889,0.12138 0.1703,0.2902 0.26808,0.43677c0.29173,0.43843 0.8011,0.92259 1.40977,0.92259c1.55493,0 1.89555,-1.84505 1.89555,-2.89061l0,-1.16542l-0.0489,0c-0.77744,1.11817 -1.94443,1.74888 -3.37628,1.74888c-3.71851,0 -5.39642,-2.76914 -5.39642,-6.14706c0,-3.27848 1.87187,-6.0224 5.46739,-6.0224c1.40982,0 2.7455,0.55824 3.30531,1.84503l0.0489,0l0,-1.5296l4.81131,0l0,10.97886l0.00003,0l0.00003,-0.00004l0,-0.00001z"/>
   <path d="m243.0139,49.12378l4.81131,0l0,6.09663l0.04892,0c0.82634,-0.97146 1.89552,-1.67476 3.93767,-1.67476c2.25827,0 4.3241,1.38303 4.3241,4.27354l0,8.64814l-4.81136,0l0,-6.60591c0,-1.45876 -0.16876,-2.47904 -1.58014,-2.47904c-0.82629,0 -1.91919,0.41321 -1.91919,2.43015l0,6.65477l-4.81131,0l0,-17.34352l0,0.00002l0,-0.00002z"/>
   <path d="m265.51291,53.85991l2.57523,0l0,2.96472l-2.57523,0l0,4.39664c0,1.16531 0.2681,1.6763 1.48236,1.6763c0.36432,0 0.72855,-0.02522 1.09286,-0.07257l0,3.64281c-0.97141,0 -2.06427,0.14505 -3.08615,0.14505c-2.04059,0 -4.30038,-0.31532 -4.30038,-3.76418l0,-6.02405l-2.1384,0l0,-2.96472l2.1384,0l0,-3.83839l4.81131,0l0,3.83839z"/>
   <path d="m276.93161,66.78361c-4.73877,0 -6.8772,-3.13345 -6.8772,-6.63121c0,-3.49766 2.1384,-6.60751 6.8772,-6.60751c4.73883,0 6.87717,3.10986 6.87717,6.60751c0,3.49776 -2.13834,6.63121 -6.87717,6.63121m0,-9.74097c-1.82141,0 -2.06583,1.77409 -2.06583,3.10977c0,1.33577 0.24442,3.13344 2.06583,3.13344c1.82141,0 2.0643,-1.79767 2.0643,-3.13344c0,-1.33567 -0.24289,-3.10977 -2.0643,-3.10977"/>
   <path d="m286.86609,53.85991l4.64102,0l0,1.60383l0.0473,0c0.90045,-1.2632 2.18884,-1.91925 4.10803,-1.91925c2.25983,0 4.32407,1.38457 4.32407,4.27518l0,8.64814l-4.80978,0l0,-6.60752c0,-1.45712 -0.17029,-2.4774 -1.58014,-2.4774c-0.82629,0 -1.92072,0.41311 -1.92072,2.4285l0,6.65642l-4.80978,0l0,-12.60788l0,-0.00002z"/>
 </g>
</svg>