<svg width="102" height="40" viewBox="0 0 102 40" fill="none" xmlns="http://www.w3.org/2000/svg" class="h-full w-auto">
  <path d="M0.000275884 14.1014L0.210508 26.3078L1.44796 23.413L0.000275884 14.1014Z" fill="#056871"/>
  <path d="M32.5874 4.25963L36.6605 12.7807L39.3508 14.4912L32.5874 4.25963Z" fill="#8CEE16"/>
  <path d="M4.51771 33.7605L1.44796 23.413L0.210508 26.3078L4.51771 33.7605Z" fill="#12737E"/>
  <path d="M40 23.0504L39.3508 14.4912L36.6605 12.7807L40 23.0504Z" fill="#70DB03"/>
  <path d="M4.36101 11.4944L7.69734 3.82819L3.84881 8.96478L0.000275884 14.1014L4.36101 11.4944Z" fill="#04705C"/>
  <path d="M27.4755 4.51369L32.5874 4.25963L20.372 0L27.4755 4.51369Z" fill="#70C123"/>
  <path d="M25.8595 40L24.79 36.5872L14.5326 39.9995L25.8595 40Z" fill="#036068"/>
  <path d="M25.8595 40C29.5234 37.5591 31.5776 36.1906 35.2415 33.7498C31.1599 34.8579 28.8716 35.4791 24.79 36.5872L25.8595 40Z" fill="#047E87"/>
  <path d="M7.69734 3.82819L15.1395 5.50506L20.372 0L7.69734 3.82819Z" fill="#52B408"/>
  <path d="M4.36072 11.4947L0 14.1016L1.44796 23.413L4.36072 11.4947Z" fill="#027A5C"/>
  <path d="M27.4755 4.51369L36.6605 12.7807L32.5874 4.25963L27.4755 4.51369Z" fill="#7ADB50"/>
  <path d="M4.51771 33.7605L14.5326 39.9995L11.1643 32.5408L4.51771 33.7605Z" fill="#036068"/>
  <path d="M40 23.0504L33.7818 25.7136L35.2415 33.7498L40 23.0504Z" fill="#4FC44A"/>
  <path d="M4.36101 11.4944L15.1395 5.50506L7.69734 3.82819L4.36101 11.4944Z" fill="#178840"/>
  <path d="M27.4755 4.51369L20.372 0L15.1395 5.50506L27.4755 4.51369Z" fill="#54AA02"/>
  <path d="M4.51771 33.7605L11.1643 32.5408L1.44796 23.413L4.51771 33.7605Z" fill="#056871"/>
  <path d="M40 23.0504L36.6605 12.7807L33.7818 25.7136L40 23.0504Z" fill="#7AC905"/>
  <path d="M24.79 36.5872L11.1643 32.5408L14.5326 39.9995L24.79 36.5872Z" fill="#12737E"/>
  <path d="M35.2415 33.7498L33.7818 25.7136L24.79 36.5872C28.8716 35.4791 31.1599 34.8579 35.2415 33.7498Z" fill="#02B468"/>
  <path d="M4.36101 11.4944L1.44796 23.413L11.2914 18.5788L4.36101 11.4944Z" fill="#0C6555"/>
  <path d="M27.4755 4.51369L25.7422 14.2153L36.6605 12.7807L27.4755 4.51369Z" fill="#8CEE16"/>
  <path d="M11.1643 32.5408L11.2914 18.5788L1.44796 23.413L11.1643 32.5408Z" fill="#0A725A"/>
  <path d="M33.7818 25.7136L36.6605 12.7807L25.7422 14.2153L33.7818 25.7136Z" fill="#98F369"/>
  <path d="M4.36101 11.4944L11.2914 18.5788L15.1395 5.50506L4.36101 11.4944Z" fill="#23964B"/>
  <path d="M27.4755 4.51369L15.1395 5.50506L25.7422 14.2153L27.4755 4.51369Z" fill="#62CA12"/>
  <path d="M21.7482 26.809L11.1643 32.5408L24.79 36.5872L21.7482 26.809Z" fill="#027E53"/>
  <path d="M21.7482 26.809L24.79 36.5872L33.7818 25.7136L21.7482 26.809Z" fill="#28BE84"/>
  <path d="M15.1395 5.50506L11.2914 18.5788L25.7422 14.2153L15.1395 5.50506Z" fill="#30BA4A"/>
  <path d="M21.7482 26.809L11.2914 18.5788L11.1643 32.5408L21.7482 26.809Z" fill="#088263"/>
  <path d="M21.7482 26.809L33.7818 25.7136L25.7422 14.2153L21.7482 26.809Z" fill="#72D81A"/>
  <path d="M21.7482 26.809L25.7422 14.2153L11.2914 18.5788L21.7482 26.809Z" fill="#1FB040"/>
  <path d="M70.1848 33.1533V27.7292H72.1718V36.9961H70.3641L66.3243 29.9455L66.3194 36.9961H64.3063L64.3112 27.7292H67.205L70.1848 33.1533Z" fill="black"/>
  <path fill-rule="evenodd" clip-rule="evenodd" d="M77.7113 27.7292C78.5964 27.7292 79.3589 27.9188 79.9987 28.2983C80.6472 28.6778 81.1467 29.2119 81.4973 29.9003C81.8478 30.5887 82.0231 31.3874 82.0231 32.2964C82.0231 33.2231 81.8478 34.044 81.4973 34.7589C81.1467 35.4649 80.6428 36.0166 79.9855 36.4137C79.3282 36.802 78.5481 36.9961 77.6455 36.9961H73.7938V27.7292H77.7113ZM75.9891 35.2752H77.3432C77.8515 35.2752 78.2766 35.1603 78.6184 34.9309C78.9689 34.6926 79.2275 34.3483 79.394 33.8982C79.5605 33.4482 79.6438 32.9098 79.6438 32.2832C79.6438 31.6742 79.5561 31.1579 79.3808 30.7342C79.2143 30.3106 78.9688 29.993 78.6445 29.7812C78.3203 29.5605 77.9304 29.4501 77.4747 29.4501H75.9891V35.2752Z" fill="black"/>
  <path d="M57.3035 33.5173C57.3035 33.931 57.3779 34.2787 57.5269 34.5603C57.6759 34.8419 57.8818 35.0531 58.1447 35.194C58.4164 35.326 58.701 35.3861 59.0428 35.3861C59.5686 35.3861 59.9613 35.2275 60.2768 34.9107C60.6011 34.5939 60.7632 34.1274 60.7632 33.5113V27.7292H62.8683V33.6434C62.8683 34.365 62.6737 34.9943 62.3407 35.5311C62.0165 36.068 61.5606 36.4818 60.9734 36.7722C60.3863 37.0538 59.729 37.1946 59.0296 37.1946C58.2672 37.1946 57.6102 37.0643 57.0142 36.7914C56.427 36.5098 55.9626 36.1093 55.6208 35.59C55.279 35.062 55.1081 34.4327 55.1081 33.7022V27.7351H57.3035V33.5173Z" fill="black"/>
  <path d="M53.955 29.4237H49.844V31.5285H53.7049L53.7153 33.2206H49.8543L49.844 36.9961H47.6486V27.7292H53.955V29.4237Z" fill="black"/>
  <path d="M72.4431 4.71178H68.3202V6.70251H72.0405V8.39587H68.3202V10.5632H72.5218V12.2842H66.1355V3.01718H72.4431V4.71178Z" fill="black"/>
  <path d="M87.4518 8.4413V3.01718H89.4363L89.4412 12.2842H87.641L83.5865 5.23354V12.2842H81.5661L81.5709 3.01718H84.4683L87.4518 8.4413Z" fill="black"/>
  <path fill-rule="evenodd" clip-rule="evenodd" d="M61.2622 3.01718C62.359 3.01719 63.197 3.26871 63.7761 3.77177C64.3639 4.27483 64.6579 5.01538 64.6579 5.84498C64.6579 6.33922 64.5476 6.85293 64.2931 7.25891C64.0387 7.65604 63.6657 7.9693 63.1744 8.19875C62.9248 8.31533 62.6513 8.40209 62.3541 8.45945L64.8553 12.2842H62.315L60.0834 8.64895H59.4011L59.3998 12.2842H57.1862V3.01718H61.2622ZM59.4011 7.11327H60.8447C61.38 7.11327 61.7837 7.00285 62.0557 6.7822C62.3276 6.56157 62.4466 6.2068 62.4466 5.84498C62.4466 5.50079 62.3194 5.15304 62.065 4.95005C61.8105 4.74707 61.4596 4.64551 61.0121 4.6455L59.4011 4.65006V7.11327Z" fill="black"/>
  <path d="M80.2417 4.71178H76.1188V6.70251H79.8391V8.39587H76.1188V10.5632H80.3203V12.2842H73.9341V3.01718H80.2417V4.71178Z" fill="black"/>
  <path d="M101.588 17.0678H97.4702V19.0585H101.186V20.7519H97.4702V22.9192H101.667V24.6402H95.2881V15.3732H101.588V17.0678Z" fill="black"/>
  <path d="M58.541 22.8662H62.3319V24.6402H56.3458V15.3732H58.541V22.8662Z" fill="black"/>
  <path d="M65.6064 24.6402H63.4112V15.3732H65.6064V24.6402Z" fill="black"/>
  <path d="M72.3914 20.139C72.4444 20.3169 72.5011 20.5109 72.562 20.7207C72.6085 20.5318 72.6612 20.3335 72.7201 20.1259L74.2187 15.3732H77.5577V24.6402H75.4544V18.0871C75.4544 17.7429 75.4632 17.4118 75.4807 17.0941C75.4859 16.9982 75.4929 16.8948 75.5018 16.7837L73.0224 24.6402H71.8787L69.4458 16.8308C69.4557 16.9559 69.4648 17.0746 69.473 17.1869C69.4993 17.5487 69.5125 17.9017 69.5125 18.2459V24.6402H67.4297V15.3732H70.9059L72.3914 20.139Z" fill="black"/>
  <path fill-rule="evenodd" clip-rule="evenodd" d="M87.6547 24.6402H85.3673L84.7064 22.5749H81.2714L80.5821 24.6402H78.4L81.8179 15.3732H84.3288L87.6547 24.6402ZM81.7828 21.0392H84.215L83.0195 17.3028L81.7828 21.0392Z" fill="black"/>
  <path d="M94.3576 17.1471H91.6319V24.6402H89.4496V17.1471H86.724V15.3732H94.3576V17.1471Z" fill="black"/>
  <path d="M51.4399 2.80542C52.3363 2.80543 53.1096 2.99102 53.7599 3.362C54.4102 3.72418 54.9376 4.23213 55.3419 4.88582C55.4122 5.00949 55.4824 5.15088 55.5528 5.30989L53.4304 6.05189C53.3953 5.94589 53.3381 5.81779 53.259 5.66762C53.0569 5.32312 52.802 5.05362 52.4944 4.85928C52.1956 4.65615 51.8485 4.55463 51.4531 4.55462C50.9697 4.55462 50.5479 4.67829 50.1876 4.92562C49.8361 5.16412 49.5635 5.52183 49.3702 5.99882C49.1856 6.46701 49.0933 7.03685 49.0933 7.70821C49.0933 8.31771 49.1856 8.85213 49.3702 9.31147C49.5635 9.77082 49.8405 10.1287 50.2008 10.3848C50.5611 10.6322 50.9785 10.7558 51.4531 10.7558C52.0858 10.7558 52.5735 10.5571 52.9163 10.1596C53.2299 9.7959 53.3997 9.28793 53.4263 8.6358H51.2026V6.99275H55.7374V8.05268C55.7374 8.98903 55.566 9.79292 55.2233 10.4643C54.8805 11.1268 54.3796 11.6347 53.7205 11.9881C53.0701 12.3326 52.2879 12.5049 51.3739 12.5049C50.4336 12.5049 49.6119 12.3106 48.9089 11.9219C48.2058 11.5332 47.6653 10.9811 47.2874 10.2656C46.9095 9.54123 46.7205 8.69761 46.7205 7.73475C46.7205 6.76305 46.9182 5.90613 47.3137 5.16411C47.7091 4.42209 48.2629 3.84353 48.9747 3.42834C49.6953 3.01316 50.5171 2.80542 51.4399 2.80542Z" fill="black"/>
  <path d="M51.0569 15.1706C51.9858 15.1706 52.8052 15.4123 53.515 15.8959C54.2248 16.3706 54.7375 17.0299 55.053 17.8739C55.1318 18.0321 55.1975 18.2344 55.2501 18.4805L52.976 18.7971C52.941 18.6037 52.8928 18.4234 52.8314 18.2564C52.6649 17.8168 52.4372 17.4871 52.148 17.2673C51.8588 17.0475 51.5038 16.9377 51.0832 16.9377C50.6538 16.9377 50.2858 17.0652 49.9791 17.3201C49.6812 17.5663 49.4533 17.9223 49.2955 18.3882C49.1378 18.8454 49.0589 19.3905 49.0589 20.0235C49.0589 20.6389 49.1378 21.1753 49.2955 21.6325C49.4533 22.0896 49.6812 22.4412 49.9791 22.6873C50.2858 22.9335 50.6538 23.0566 51.0832 23.0566C51.5038 23.0566 51.8675 22.9335 52.1742 22.6873C52.4809 22.4412 52.7 22.0983 52.8314 21.6587C52.9015 21.4917 52.9497 21.3115 52.976 21.1181L55.1581 21.4478C55.123 21.6324 55.0572 21.8653 54.9608 22.1466C54.6191 23.0082 54.1108 23.6721 53.436 24.138C52.7613 24.5952 51.9594 24.8237 51.0306 24.8237C50.1893 24.8237 49.4357 24.6303 48.7697 24.2435C48.1037 23.8479 47.5868 23.2896 47.2188 22.5687C46.8507 21.8478 46.6666 21.0126 46.6666 20.0631C46.6666 19.1048 46.8507 18.2564 47.2188 17.5179C47.5956 16.7706 48.1169 16.1948 48.7829 15.7904C49.4489 15.3772 50.2069 15.1706 51.0569 15.1706Z" fill="black"/>
  </svg>